<svg width="120" height="72" viewBox="0 0 120 72" fill="none" xmlns="http://www.w3.org/2000/svg">
<path d="M10.8006 7.49499C8.81602 6.04479 9.31215 2.11395 10.5716 0.854561C11.8311 -0.404822 15.7588 -0.214097 16.716 1.04538C17.6733 2.30485 18.4731 5.43577 16.5253 7.22786C15.5712 8.10563 12.2127 8.52686 10.8006 7.49499Z" fill="#6956E5"/>
<path d="M1.33305 22.3937C-0.651516 20.9435 -0.155396 17.0127 1.10406 15.7533C2.36351 14.4939 6.29128 14.6846 7.24851 15.9441C8.20574 17.2036 9.00559 20.3345 7.05772 22.1266C6.10365 23.0043 2.74513 23.4256 1.33305 22.3937Z" fill="#6956E5"/>
<path d="M2.55432 53.993C0.56975 52.5428 1.06587 48.612 2.32533 47.3526C3.58478 46.0932 7.51254 46.284 8.46977 47.5434C9.427 48.8029 10.2269 51.9338 8.27899 53.7259C7.32491 54.6037 3.9664 55.0249 2.55432 53.993Z" fill="#6956E5"/>
<path d="M111.705 54.1457C109.72 52.6955 110.217 48.7647 111.476 47.5053C112.735 46.2459 116.663 46.4366 117.62 47.6961C118.578 48.9556 119.378 52.0865 117.43 53.8786C116.476 54.7563 113.117 55.1776 111.705 54.1457Z" fill="#6956E5"/>
<path d="M113.079 22.47C111.094 21.0198 111.59 17.089 112.85 15.8296C114.109 14.5702 118.037 14.7609 118.994 16.0204C119.952 17.2799 120.751 20.4108 118.804 22.2029C117.849 23.0807 114.491 23.5019 113.079 22.47Z" fill="#6956E5"/>
<path d="M103.461 7.58628C101.477 6.13608 101.973 2.20524 103.232 0.945849C104.492 -0.313534 108.42 -0.122809 109.377 1.13666C110.334 2.39614 111.134 5.52706 109.186 7.31914C108.232 8.19692 104.874 8.61815 103.461 7.58628Z" fill="#6956E5"/>
<path fill-rule="evenodd" clip-rule="evenodd" d="M12.1363 11.006C9.96096 13.1814 10.4952 18.4479 12.1363 20.814C13.1837 22.3241 15.2569 22.1179 16.8084 21.9637C17.6881 21.8762 18.4001 21.8054 18.6625 22.0734C18.923 22.3397 18.9108 23.2769 18.8951 24.4836C18.867 26.6351 18.8278 29.6434 20.3035 31.2327C21.5737 32.6005 24.1469 32.6223 26.4431 32.6418C28.311 32.6576 29.9956 32.6719 30.6461 33.408C31.0998 33.9213 31.8292 40.1248 29.9973 41.1552C28.1654 42.1856 24.0055 42.3764 22.6697 41.1552C21.9688 40.5143 21.993 39.3585 22.0199 38.0738C22.0442 36.9103 22.0708 35.6411 21.563 34.5529C20.9393 33.2166 18.5247 33.44 16.4686 33.6302C15.0015 33.7659 13.7168 33.8848 13.3958 33.408C12.8223 32.5566 12.8977 31.3275 12.9733 30.0925C13.0639 28.6151 13.1549 27.1292 12.1363 26.2714C9.96094 24.4396 3.316 24.3251 2.1372 26.2714C0.496126 28.981 0.267124 33.5988 2.1372 35.4688C3.21743 36.549 5.21941 36.3813 6.84005 36.2455C8.02504 36.1462 9.00615 36.064 9.27398 36.4992C9.80242 37.3579 9.72443 38.6209 9.63861 40.0106C9.5261 41.8327 9.40012 43.8729 10.6097 45.5058C12.1363 47.5666 15.1513 47.8719 16.9069 46.5362C18.6625 45.2005 21.563 44.6662 23.204 46.5362C24.4569 47.9638 23.9292 50.4671 23.204 51.8028C22.2796 53.5057 19.3876 53.253 17.5175 51.8028C15.6475 50.3526 13.6629 49.9709 12.1363 51.8028C10.6097 53.6346 10.2663 59.1302 12.1363 60.8857C14.0064 62.6412 19.9219 62.7175 21.563 61.8016C22.3366 61.3698 22.7059 60.5347 22.9748 59.9265C23.2763 59.2446 23.4516 58.8482 23.9292 59.6263C33.5085 75.2351 82.5881 76.9907 96.2129 59.6263C96.8942 58.7579 97.0725 59.2696 97.3439 60.0487C97.5505 60.6416 97.811 61.3893 98.3882 61.8016C99.724 62.7557 106.441 62.7175 107.471 61.8016C109.189 60.2751 108.693 52.7569 108.082 51.8028C107.471 50.8487 104.189 49.2458 101.899 51.8028C100.43 53.4438 96.938 52.2803 96.2129 51.8028C95.4877 51.3253 95.6731 47.3377 96.2129 46.5362C97.2667 44.9715 101.655 44.6662 102.205 46.0019C103.006 47.9483 108.082 47.2354 108.807 46.5362C110.522 44.8825 110.413 41.5301 110.337 39.2002C110.294 37.9008 110.262 36.9195 110.563 36.7282C111.135 36.3639 112.104 36.4645 113.178 36.5761C114.804 36.7451 116.673 36.9393 117.776 35.5833C118.747 34.3899 119.08 27.6453 117.776 25.8898C116.472 24.1343 108.731 24.2488 107.471 25.8898C106.842 26.7103 106.842 28.2236 106.842 29.7149C106.842 31.2062 106.842 32.6755 106.212 33.408C105.768 33.9247 104.334 33.7263 102.802 33.5143C100.94 33.2567 98.9346 32.9791 98.3882 33.9423C97.7103 35.1375 97.7829 36.4792 97.8498 37.7152C97.926 39.1233 97.9948 40.3942 96.938 41.1552C94.9534 42.584 90.1065 41.9005 89.4959 41.1552C88.8852 40.4099 87.9634 33.9423 89.4959 32.7974C90.3185 32.1828 91.6142 32.3026 93.0692 32.437C95.3186 32.6449 97.9488 32.8881 99.8003 30.5076C101.376 28.4822 101.063 25.8343 100.845 23.9915C100.73 23.0216 100.642 22.2748 100.869 21.959C101.396 21.2264 102.841 21.2791 104.347 21.3339C105.786 21.3863 107.28 21.4408 108.082 20.814C109.723 19.5314 109.418 12.4781 108.082 11.006C106.746 9.53399 99.8003 8.94521 97.8539 11.6167C96.7932 13.0725 97.0473 14.5057 97.2634 15.7248C97.4439 16.7426 97.5979 17.6111 96.938 18.2189C96.3093 18.798 95.0422 18.7602 93.6312 18.7182C91.7874 18.6632 89.6978 18.601 88.4654 19.8981C87.3205 20.8713 87.3205 22.3689 87.3205 23.4039C87.3205 24.439 87.3205 25.0114 86.1756 24.1343C64.3073 7.38051 39.0474 18.8262 33.5085 24.1343C32.5925 25.012 32.5925 24.7544 32.5925 23.8767C32.5925 22.9989 32.5925 21.501 31.6766 19.8981C30.6275 18.0622 28.2391 18.3542 26.1529 18.6091C24.5963 18.7994 23.2079 18.9691 22.6697 18.2189C22.0197 17.3129 22.0407 15.8376 22.061 14.4068C22.08 13.0654 22.0985 11.7632 21.563 11.006C20.4562 9.44134 14.9223 8.94521 12.1363 11.006ZM39.3095 32.6447C40.0709 31.5598 42.56 31.1014 45.0724 31.1417C47.5975 31.1822 50.1462 31.7265 50.9879 32.6447C51.8865 33.6249 52.301 35.911 52.2792 38.1635C52.2578 40.3847 51.812 42.5733 50.9879 43.445C49.0755 45.4676 40.9979 45.4206 39.3096 43.445C37.5158 41.346 37.783 34.82 39.3095 32.6447ZM80.4768 32.6618C78.7975 30.8299 70.325 30.4865 68.7984 32.6618C67.2718 34.8371 67.0046 41.3631 68.7984 43.462C70.4868 45.4377 78.5643 45.4847 80.4768 43.462C82.1366 41.7065 82.2615 34.6086 80.4768 32.6618ZM68.7984 56.5201C52.8579 56.5201 52.2792 49.5362 52.2792 57.0925C52.2792 72.1064 68.7984 60.7944 68.7984 56.5201Z" fill="#6956E5"/>
<path d="M103.461 7.58628C101.477 6.13608 101.973 2.20524 103.232 0.945849C104.492 -0.313534 108.42 -0.122809 109.377 1.13666C110.334 2.39614 111.134 5.52706 109.186 7.31914C108.232 8.19692 104.874 8.61815 103.461 7.58628Z" fill="#6956E5"/>
<path d="M69.8793 39.6968C67.8948 38.2466 68.3909 34.3158 69.6503 33.0564C70.9098 31.797 74.8375 31.9877 75.7948 33.2472C76.752 34.5066 77.5519 37.6376 75.604 39.4297C74.6499 40.3074 71.2914 40.7287 69.8793 39.6968Z" fill="#6956E5"/>
<path d="M69.8793 39.6968C67.8948 38.2466 68.3909 34.3158 69.6503 33.0564C70.9098 31.797 74.8375 31.9877 75.7948 33.2472C76.752 34.5066 77.5519 37.6376 75.604 39.4297C74.6499 40.3074 71.2914 40.7287 69.8793 39.6968Z" fill="#6956E5"/>
<path d="M40.6582 39.4673C38.6736 38.0171 39.1698 34.0863 40.4292 32.8269C41.6887 31.5675 45.6164 31.7582 46.5737 33.0177C47.5309 34.2772 48.3307 37.4081 46.3829 39.2002C45.4288 40.078 42.0703 40.4992 40.6582 39.4673Z" fill="#6956E5"/>
<path d="M40.6582 39.4673C38.6736 38.0171 39.1698 34.0863 40.4292 32.8269C41.6887 31.5675 45.6164 31.7582 46.5737 33.0177C47.5309 34.2772 48.3307 37.4081 46.3829 39.2002C45.4288 40.078 42.0703 40.4992 40.6582 39.4673Z" fill="#6956E5"/>
</svg>
